<?xml version="1.0" standalone="no"?>
<!DOCTYPE svg PUBLIC "-//W3C//DTD SVG 20010904//EN"
 "http://www.w3.org/TR/2001/REC-SVG-20010904/DTD/svg10.dtd">
<svg version="1.0" xmlns="http://www.w3.org/2000/svg"
 width="447.000000pt" height="470.000000pt" viewBox="0 0 447.000000 470.000000"
 preserveAspectRatio="xMidYMid meet">
<metadata>
Created by potrace 1.16, written by Peter Selinger 2001-2019
</metadata>
<g transform="translate(0.000000,470.000000) scale(0.100000,-0.100000)"
fill="#000000" stroke="none">
<path d="M1880 4685 c-343 -69 -598 -311 -657 -622 l-17 -92 -270 -3 c-251 -3
-274 -5 -317 -24 -65 -30 -114 -78 -144 -138 -25 -51 -36 -143 -216 -1752
-113 -1010 -187 -1713 -184 -1734 12 -67 47 -130 96 -174 92 -82 -71 -76 1894
-76 1953 0 1812 -5 1898 70 66 58 98 129 98 216 0 109 -368 3373 -386 3423
-23 66 -77 126 -143 158 l-57 28 -261 3 -261 3 -7 56 c-17 149 -98 307 -216
424 -119 118 -270 198 -442 233 -94 19 -314 20 -408 1z m395 -175 c161 -41
298 -129 385 -248 52 -70 97 -175 107 -249 l6 -43 -692 0 c-657 0 -691 1 -691
18 0 40 33 139 67 205 84 159 266 287 468 327 82 16 268 11 350 -10z m170
-1424 c44 -8 110 -22 145 -31 151 -39 370 -127 370 -149 0 -9 -119 -400 -135
-444 -3 -9 -21 -4 -65 18 -193 98 -497 153 -718 130 -123 -13 -184 -33 -217
-71 -29 -35 -31 -58 -10 -99 29 -56 108 -87 310 -120 395 -67 575 -127 732
-244 171 -129 239 -347 182 -585 -18 -71 -82 -200 -132 -262 -91 -113 -249
-206 -435 -257 -90 -24 -113 -26 -307 -26 -238 -1 -349 15 -544 81 -114 37
-290 123 -358 173 l-42 31 74 212 c40 117 78 224 84 239 l10 28 78 -56 c212
-152 483 -234 732 -221 225 12 341 75 341 185 0 44 -41 87 -105 111 -31 12
-128 34 -218 51 -447 83 -639 155 -778 290 -98 96 -132 173 -149 337 -12 113
1 190 50 290 105 214 341 354 685 407 58 9 341 -3 420 -18z"/>
<path d="M3872 3747 c-16 -17 -22 -36 -22 -68 0 -49 367 -3263 376 -3292 17
-55 90 -74 138 -36 21 17 26 29 26 66 0 25 -83 771 -185 1657 -102 887 -185
1620 -185 1629 0 10 -11 29 -25 42 -33 34 -93 34 -123 2z"/>
</g>
</svg>
